<svg viewBox="0 0 458 271" fill="none" xmlns="http://www.w3.org/2000/svg">
  <path d="M231 139.587C210.459 193.522 165.58 226.832 131 213.663C96.4198 200.493 110.459 143.597 131 89.6627C151.541 35.7279 184.417 7.33878 218.997 20.5084C253.578 33.6781 251.541 85.6524 231 139.587ZM168.071 112.935C163.565 124.766 151.915 153.774 159.5 156.663C167.085 159.551 191.034 135.227 195.539 123.396C200.045 111.566 197.548 99.6335 189.963 96.7447C182.378 93.8559 172.577 101.105 168.071 112.935Z" fill="#6491BB"/>
  <path d="M343 123.922C339.089 181.503 331.805 222.17 294.887 219.663C257.969 217.155 217.048 175.206 220.959 117.625C224.87 60.0443 257.969 15.3985 294.887 17.9062C331.805 20.4139 346.911 66.3411 343 123.922ZM261.95 120.41C260.437 142.681 270.787 161.522 285.066 162.492C299.345 163.462 312.147 146.194 313.66 123.922C315.173 101.651 309.166 61.6326 294.887 60.6627C280.608 59.6927 263.463 98.1382 261.95 120.41Z" fill="#6491BB"/>
  <circle cx="179" cy="124" r="6" fill="#17308A"/>
  <circle cx="288" cy="124" r="6" fill="#17308A"/>
</svg>
